<svg width="698" height="720" viewBox="0 0 698 720" fill="none" xmlns="http://www.w3.org/2000/svg">
<path d="M99.0297 0H145.35V362.395H99.0297V0Z" fill="black"/>
<path d="M552.65 0H598.97V362.395H552.65V0Z" fill="black"/>
<path d="M365.771 491.707H412.092V585.898H365.771V491.707Z" fill="black"/>
<path d="M285.908 491.707H332.229V585.898H285.908V491.707Z" fill="black"/>
<path d="M651.68 106.962H698V271.397H651.68V106.962Z" fill="black"/>
<path d="M0 106.962H46.3204V271.397H0V106.962Z" fill="black"/>
<path d="M552.65 0V44.7007L145.35 44.7007V0H552.65Z" fill="black"/>
<path d="M455.217 447.007V491.707H242.783V447.007H455.217Z" fill="black"/>
<path d="M490.357 585.898V630.599H210.838V585.898H490.357Z" fill="black"/>
<path d="M527.094 675.299V720H174.101V675.299H527.094Z" fill="black"/>
<path d="M242.783 630.599V675.299H174.101V630.599H242.783Z" fill="black"/>
<path d="M527.094 630.599V675.299H458.412V630.599H527.094Z" fill="black"/>
<path d="M698 62.2616V106.962H598.97V62.2616L698 62.2616Z" fill="black"/>
<path d="M99.0297 62.2616V106.962H0V62.2616L99.0297 62.2616Z" fill="black"/>
<path d="M651.68 271.397V316.098H598.97V271.397H651.68Z" fill="black"/>
<path d="M99.0297 271.397V316.098H46.3204V271.397H99.0297Z" fill="black"/>
<path d="M557.442 362.395V407.095H498.343V362.395H557.442Z" fill="black"/>
<path d="M506.33 403.902V448.603H455.217V403.902H506.33Z" fill="black"/>
<path d="M242.783 402.306V447.007H191.67V402.306H242.783Z" fill="black"/>
<path d="M202.851 362.395V407.095H143.753V362.395H202.851Z" fill="black"/>
<path d="M651.68 226.696V271.397H630.915V226.696H651.68Z" fill="black"/>
<path d="M67.0847 226.696V271.397H46.3204V226.696H67.0847Z" fill="black"/>
<path d="M552.65 317.694V362.395H531.886V317.694H552.65Z" fill="black"/>
<path d="M166.114 317.694V362.395H145.35V317.694H166.114Z" fill="black"/>
</svg>
