<svg width="528" height="790" viewBox="0 0 528 790" fill="none" xmlns="http://www.w3.org/2000/svg">
<path d="M160 0H368V54H160V0Z" fill="black"/>
<path d="M475 108V316H421V108H475Z" fill="black"/>
<path d="M107 108L107 316H53L53 108H107Z" fill="black"/>
<path d="M54 424L54 581H0L6.86269e-06 424H54Z" fill="black"/>
<path d="M528 424V581H474V424H528Z" fill="black"/>
<path d="M422 528V790H368V528H422Z" fill="black"/>
<path d="M316 631V736H211V631H316Z" fill="black"/>
<path d="M368 790H160V736H368V790Z" fill="black"/>
<path d="M160 528V790H106L106 528H160Z" fill="black"/>
<path d="M368 54H421V108H368V54Z" fill="black"/>
<path d="M107 54H160V108H107V54Z" fill="black"/>
<path d="M107 316H160V370H107L107 316Z" fill="black"/>
<path d="M53 581H106V635H53V581Z" fill="black"/>
<path d="M422 581H475V635H422V581Z" fill="black"/>
<path d="M368 316H421V370H368V316Z" fill="black"/>
<path d="M160 212H213V266H160V212Z" fill="black"/>
<path d="M315 212H368V266H315V212Z" fill="black"/>
<path d="M421 370H474V424H421V370Z" fill="black"/>
<path d="M54 370H107V424H54V370Z" fill="black"/>
</svg>
